<svg width="23" height="20" viewBox="0 0 23 20" fill="none" xmlns="http://www.w3.org/2000/svg">
<path d="M22.3337 12.4382C22.2942 12.6055 22.2584 12.7738 22.2142 12.9403C21.7253 14.7692 19.8796 16.0931 17.7249 16.1208C15.949 16.1438 14.1717 16.1438 12.3958 16.1219C10.3466 16.0968 8.54175 14.8543 8.0133 13.1449C7.40741 11.1865 6.82067 9.2237 6.19224 7.27122C5.75272 5.90445 5.25916 4.551 4.7856 3.19274C4.67327 2.87048 4.3899 2.69547 3.98697 2.69399C3.20153 2.69103 2.41566 2.69806 1.63022 2.6914C0.876269 2.68437 0.437597 2.17488 0.627787 1.54108C0.732456 1.19254 1.04221 0.934281 1.48215 0.927621C2.45055 0.912821 3.42703 0.873231 4.38734 0.956111C5.59188 1.05971 6.37052 1.71127 6.70282 2.70842C7.79205 5.97808 8.85192 9.25552 9.92882 12.5285C10.2884 13.6215 11.2584 14.2486 12.5638 14.2497C14.2768 14.2508 15.9894 14.2512 17.7024 14.2497C19.1924 14.2486 20.3795 13.2382 20.394 11.9435C20.4059 10.8602 20.4042 9.77647 20.3935 8.69349C20.3812 7.42625 19.1967 6.41172 17.7258 6.40691C16.0272 6.40099 14.3283 6.40654 12.6298 6.40358C12.4685 6.40321 12.3013 6.39581 12.1473 6.35844C11.6814 6.24633 11.4176 5.8693 11.4648 5.41199C11.5082 4.9913 11.8375 4.66533 12.3136 4.64424C12.9702 4.61501 13.6292 4.62204 14.287 4.62278C15.5184 4.62389 16.7518 4.5954 17.9806 4.64498C20.0434 4.72823 21.7713 6.04283 22.2065 7.79773C22.2542 7.98939 22.2912 8.18253 22.3333 8.37529C22.3337 9.72911 22.3337 11.0837 22.3337 12.4382Z" fill="#173D7D"/>
<path d="M10.8608 19.46C10.677 19.46 10.4924 19.4711 10.3098 19.4578C9.81033 19.4215 9.4691 19.0911 9.43762 18.6268C9.40699 18.1761 9.71843 17.7739 10.2086 17.7258C10.64 17.6833 11.0855 17.6851 11.5173 17.7258C12.0049 17.7721 12.3015 18.1587 12.2823 18.629C12.2636 19.0804 11.9258 19.416 11.4339 19.4556C11.2446 19.4707 11.0527 19.4582 10.8617 19.4582C10.8608 19.4589 10.8608 19.4593 10.8608 19.46Z" fill="#173D7D"/>
<path d="M19.9993 19.4585C19.8083 19.4585 19.6159 19.4715 19.4266 19.4559C18.9292 19.4156 18.5931 19.0767 18.5722 18.6109C18.5522 18.1617 18.8569 17.7732 19.3402 17.7266C19.7721 17.6848 20.2176 17.6848 20.6499 17.7255C21.149 17.7724 21.4408 18.1502 21.4157 18.6231C21.3915 19.0826 21.0626 19.4134 20.572 19.4552C20.3827 19.4711 20.1903 19.4578 19.9993 19.4578C19.9993 19.4581 19.9993 19.4585 19.9993 19.4585Z" fill="#173D7D"/>
</svg>
