<svg width="16" height="13" viewBox="0 0 16 13" fill="none" xmlns="http://www.w3.org/2000/svg">
<path d="M15.1465 1.68368C14.5878 1.92562 13.9924 2.08598 13.3717 2.16385C14.0103 1.7875 14.4976 1.19609 14.7267 0.483259C14.1314 0.833652 13.4741 1.08115 12.7736 1.21927C12.2083 0.625085 11.4026 0.25708 10.5237 0.25708C8.81839 0.25708 7.44553 1.62343 7.44553 3.29845C7.44553 3.53946 7.46619 3.7712 7.5169 3.99182C4.95618 3.86853 2.69031 2.65699 1.16815 0.811405C0.902401 1.26654 0.746523 1.7875 0.746523 2.34831C0.746523 3.40134 1.29585 4.3348 2.11468 4.87522C1.61982 4.86595 1.13434 4.72412 0.723047 4.50072C0.723047 4.50999 0.723047 4.52204 0.723047 4.53409C0.723047 6.01167 1.79072 7.23898 3.19081 7.5217C2.94009 7.58937 2.66683 7.62181 2.38324 7.62181C2.18605 7.62181 1.98698 7.61069 1.80011 7.5699C2.1992 8.77403 3.33166 9.65928 4.67822 9.68802C3.63027 10.4973 2.29967 10.9848 0.859206 10.9848C0.606608 10.9848 0.364339 10.9737 0.12207 10.9431C1.48647 11.8117 3.10348 12.3076 4.84725 12.3076C10.5152 12.3076 13.614 7.6728 13.614 3.65533C13.614 3.52092 13.6093 3.39115 13.6027 3.2623C14.214 2.83404 14.7277 2.29918 15.1465 1.68368Z" fill="white"/>
</svg>
